<?xml version="1.0" ?><svg id="Слой_1" style="enable-background:new 0 0 128 128;" version="1.1" viewBox="0 0 128 128" xml:space="preserve" xmlns="http://www.w3.org/2000/svg" xmlns:xlink="http://www.w3.org/1999/xlink"><style type="text/css">
	.st0{fill:#66CCCC;}
	.st1{fill:#E5E5E5;}
	.st2{fill:#FFFFFF;}
	.st3{fill:#FFCC33;}
	.st4{fill:#FFFFCC;}
	.st5{fill:#FF6666;}
	.st6{fill:#D65656;}
	.st7{fill:#F9AF38;}
	.st8{fill:#CC66FF;}
	.st9{fill:#9966CC;}
	.st10{fill:#FFBB33;}
	.st11{fill:#ED7E7E;}
	.st12{fill:#E56A6A;}
	.st13{fill:#C64F4F;}
	.st14{fill:#CC6633;}
</style><circle class="st0" cx="64" cy="64" r="62"/><g><g><path class="st9" d="M54.7804604,36.0361748c-5.6326523-5.7680054-14.8747101-5.8777332-20.6427116-0.2450829    s-5.8777313,14.8747063-0.2450829,20.6427116s28.5294037,22.1483727,35.4409904,15.3989677    C76.2452545,65.083374,60.4131088,41.8041763,54.7804604,36.0361748z"/><path class="st9" d="M37.0303307,52.2983818c-8.0617981,0.0636597-14.5455704,6.6506424-14.4819107,14.7124367    s6.6506424,14.5455704,14.7124405,14.4819107s35.7384071-5.2195282,35.6621208-14.8796844    C72.8467026,56.9528809,45.0921249,52.2347221,37.0303307,52.2983818z"/><path class="st9" d="M33.7932854,76.6334534c-4.0509529,6.9703979-1.6842766,15.9049683,5.2861176,19.9559174    c6.9703941,4.0509567,15.9049606,1.6842804,19.9559135-5.2861176c4.0509529-6.9703903,13.709053-33.41465,5.3566818-38.2687607    S37.8442383,69.663063,33.7932854,76.6334534z"/><path class="st9" d="M78.3333359,91.4023666C78.3333359,99.4644165,71.7977524,106,63.7357025,106    S49.138073,99.4644165,49.138073,91.4023666S54.0752411,55.623867,63.7357025,55.623867    S78.3333359,83.3403244,78.3333359,91.4023666z"/><path class="st9" d="M94.6778107,76.6334534c4.0509491,6.9703979,1.6842804,15.9049683-5.2861176,19.9559174    c-6.9703903,4.0509567-15.9049606,1.6842804-19.9559174-5.2861176c-4.0509491-6.9703903-13.7090492-33.41465-5.3566742-38.2687607    S90.6268539,69.663063,94.6778107,76.6334534z"/><path class="st9" d="M91.4407654,52.2983818c8.0617981,0.0636597,14.5455704,6.6506424,14.4819107,14.7124367    s-6.6506424,14.5455704-14.7124405,14.4819107S55.4718323,76.273201,55.548111,66.6130447    C55.6243935,56.9528809,83.3789673,52.2347221,91.4407654,52.2983818z"/><path class="st9" d="M73.6906357,36.0361748c5.6326523-5.7680054,14.8747101-5.8777332,20.6427155-0.2450829    s5.8777313,14.8747063,0.245079,20.6427116S66.0490265,78.5821762,59.1374359,71.8327713    C52.2258453,65.083374,68.0579834,41.8041763,73.6906357,36.0361748z"/><path class="st9" d="M78.3333359,37.2214966c0-8.0620499-6.5355835-14.5976315-14.5976334-14.5976315    S49.138073,29.1594467,49.138073,37.2214966S54.0752411,73,63.7357025,73S78.3333359,45.2835426,78.3333359,37.2214966z"/></g><g><path class="st8" d="M61.7193565,45.5874825c-2.6377182-4.2918205-8.2552185-5.6327362-12.5470428-2.9950218    c-4.2918205,2.6377182-5.6327362,8.2552185-2.9950218,12.5470428    c2.6377182,4.2918205,14.3342018,17.4313126,19.4769363,14.2706299    C70.7969666,66.2494583,64.3570709,49.879303,61.7193565,45.5874825z"/><path class="st8" d="M48.6596413,53.0516777c-4.9220886-1.0725403-9.7816963,2.04813-10.8542404,6.9702148    c-1.0725403,4.9220848,2.04813,9.7816963,6.9702148,10.8542366c4.9220886,1.0725479,22.500515,1.7455673,23.7857018-4.1523895    C69.8465118,60.825779,53.5817261,54.1242218,48.6596413,53.0516777z"/><path class="st8" d="M43.3321457,67.4365997c-3.4297638,3.6897202-3.2190361,9.4611969,0.4706802,12.8909607    c3.6897125,3.4297714,9.4611931,3.2190399,12.8909569-0.4706726c3.4297676-3.6897202,12.9613686-18.4749336,8.5401192-22.5846977    S46.7619133,63.7468872,43.3321457,67.4365997z"/><path class="st8" d="M68.4414139,82.5775757c-1.1113739,4.9134674-5.9954758,7.9956665-10.9089394,6.8842926    c-4.9134636-1.1113815-7.9956665-5.9954758-6.8842888-10.9089432c1.1113739-4.9134598,7.9411545-21.1248207,13.8287811-19.7930984    S69.5527878,77.6641083,68.4414139,82.5775757z"/><path class="st8" d="M80.438591,75.8297043c1.507988,4.8065796-1.1660538,9.92556-5.9726334,11.433548    c-4.8065872,1.507988-9.92556-1.1660538-11.4335518-5.9726334c-1.507988-4.8065872-3.7487602-22.2545929,2.0107918-24.0615616    C70.8027573,55.4220848,78.9305954,71.0231171,80.438591,75.8297043z"/><path class="st8" d="M81.8204117,60.5523109c4.9045334,1.1501389,7.9480743,6.0584221,6.7979355,10.9629555    s-6.0584183,7.9480743-10.9629593,6.7979355c-4.9045334-1.1501389-21.0614586-8.1077118-19.6832886-13.9846344    C59.3502693,58.4516373,76.9158783,59.4021721,81.8204117,60.5523109z"/><path class="st8" d="M73.244278,48.1943054c4.2279892-2.7388687,9.8757401-1.5317001,12.6146088,2.6962891    s1.5317001,9.8757401-2.6962891,12.6146088s-20.4406281,9.5655975-23.7225151,4.4993591    C56.1581917,62.9383125,69.0162888,50.9331741,73.244278,48.1943054z"/><path class="st8" d="M75.9104004,49.5567131c1.1113739-4.9134636-1.9708328-9.7975616-6.8842926-10.9089355    c-4.9134674-1.1113777-9.7975616,1.9708252-10.9089394,6.8842888c-1.1113739,4.9134636-1.9231796,22.4860306,3.964447,23.817749    C67.9692459,70.6815414,74.7990189,54.4701767,75.9104004,49.5567131z"/></g><circle class="st3" cx="64.6384659" cy="63.6384621" r="7.7365365"/><circle class="st7" cx="62.4388618" cy="60.2252846" r="2.6546938"/></g></svg>